<svg width="60" height="53" viewBox="0 0 60 53" fill="none" xmlns="http://www.w3.org/2000/svg">
<path d="M43.1194 20.6223C45.1934 20.6223 46.8689 22.2979 46.8689 24.3718C46.8689 26.4458 45.1934 28.1214 43.1194 28.1214C41.0455 28.1214 39.3699 26.4458 39.3699 24.3718C39.3699 22.2979 41.0455 20.6223 43.1194 20.6223ZM29.9961 20.6223C32.0701 20.6223 33.7456 22.2979 33.7456 24.3718C33.7456 26.4458 32.0701 28.1214 29.9961 28.1214C27.9222 28.1214 26.2466 26.4458 26.2466 24.3718C26.2466 22.2979 27.9222 20.6223 29.9961 20.6223ZM16.8728 20.6223C18.9468 20.6223 20.6223 22.2979 20.6223 24.3718C20.6223 26.4458 18.9468 28.1214 16.8728 28.1214C14.7989 28.1214 13.1233 26.4458 13.1233 24.3718C13.1233 22.2979 14.7989 20.6223 16.8728 20.6223ZM29.9961 0C46.5643 0 59.9922 10.9087 59.9922 24.3718C59.9922 29.9492 57.6605 35.058 53.7938 39.1707C55.5397 43.7873 59.172 47.7008 59.2306 47.7477C60.0039 48.5679 60.2149 49.7631 59.7696 50.7942C59.3243 51.8253 58.3049 52.4932 57.1801 52.4932C49.974 52.4932 44.2911 49.4819 40.8814 47.0681C37.4951 48.1344 33.8394 48.7437 29.9961 48.7437C13.4279 48.7437 0 37.8349 0 24.3718C0 10.9087 13.4279 0 29.9961 0ZM29.9961 43.1194C33.1246 43.1194 36.218 42.639 39.1824 41.7016L41.8422 40.858L44.1271 42.475C45.8027 43.6584 48.0992 44.9824 50.8645 45.873C50.0091 44.4552 49.1772 42.8616 48.5328 41.1626L47.2907 37.8701L49.7045 35.3157C51.8253 33.0543 54.368 29.3165 54.368 24.3718C54.368 14.0372 43.4358 5.62427 29.9961 5.62427C16.5564 5.62427 5.62427 14.0372 5.62427 24.3718C5.62427 34.7064 16.5564 43.1194 29.9961 43.1194Z" fill="#1C578A"/>
</svg>
