<svg width="48" height="49" viewBox="0 0 48 49" fill="none" xmlns="http://www.w3.org/2000/svg">
<circle cx="24" cy="24" r="24" fill="#F5F5F5"/>
<path d="M10 10C10 7.23858 12.2386 5 15 5H32C34.7614 5 37 7.23858 37 10V18C37 19.1046 36.1046 20 35 20H12C10.8954 20 10 19.1046 10 18V10Z" fill="#26374A"/>
<path d="M13 10.7435C13 9.08668 14.3431 7.74353 16 7.74353H31C32.6569 7.74353 34 9.08668 34 10.7435V16.2435C34 16.7958 33.5523 17.2435 33 17.2435H14C13.4477 17.2435 13 16.7958 13 16.2435V10.7435Z" fill="white"/>
<path d="M15.7562 39.0665C17.5716 41.7819 19.9958 43 23.8415 43C27.6871 43 30.0684 41.7833 31.8838 39.0679C33.4883 36.7404 34.6704 33.5176 35.0926 30.2419C36.209 31.0017 36.3843 31.2974 37.3032 32.8477L37.3624 32.9475C37.2779 33.0337 37.1935 33.12 37.109 33.2492C36.3491 34.1544 36.0535 35.5767 36.7713 37.1284L38.249 36.4387C37.8268 35.5335 37.9535 34.7577 38.3335 34.2837C38.5023 34.1112 38.7134 33.9388 38.9668 33.8527C39.1779 33.7665 39.4312 33.7233 39.6423 33.7665C40.2334 33.8096 40.7823 34.2837 41.12 35.2319L42.64 34.7147C42.0911 33.0337 40.9934 32.2579 39.8534 32.1286C39.5156 32.0855 39.1357 32.0855 38.7979 32.1717C37.7001 30.2321 35.3213 28.0471 35.3213 28.0471C35.3213 26.711 34.7127 25.0168 33.995 24.1116C33.2771 23.1634 32.2638 22.56 31.1238 22.56H23.8196L16.5162 22.5586C15.3762 22.5586 14.3629 23.162 13.645 24.1102C12.9273 25.0154 12.3187 26.7096 12.3187 28.0457C12.3187 28.0457 9.93985 30.2307 8.84211 32.1703C8.50435 32.0841 8.12436 32.0841 7.78658 32.1272C6.64662 32.2565 5.54887 33.0323 5 34.7133L6.51996 35.2305C6.85772 34.2823 7.4066 33.8082 7.9977 33.765C8.2088 33.7219 8.46212 33.765 8.67322 33.8513C8.92655 33.9374 9.13766 34.1098 9.30654 34.2823C9.68653 34.7563 9.81319 35.5321 9.39099 36.4373L10.8687 37.127C11.5865 35.5753 11.2909 34.153 10.531 33.2478C10.4465 33.1186 10.3621 33.0323 10.2776 32.9461C11.2487 31.3082 11.4074 31.0163 12.5474 30.2405C12.9696 33.5162 14.1517 36.739 15.7562 39.0665Z" fill="#26374A" stroke="#26374A"/>
<path d="M30.1466 37.6039C31.4347 35.792 32.2819 33.4098 32.6209 30.8599C32.6548 30.5579 32.7565 28.9474 32.7565 28.6454C32.7565 27.6054 32.4175 26.6659 31.8414 25.9613C31.2651 25.2231 30.4179 24.7534 29.5027 24.7534H17.7755C16.8603 24.7534 16.0469 25.2231 15.4706 25.9613C14.8945 26.6659 14.5555 27.6054 14.5555 28.6454C14.5555 28.9474 14.6572 30.5579 14.6911 30.8599C15.0301 33.4098 15.8774 35.792 17.1654 37.6039C18.6227 39.7177 20.5689 40.6659 23.656 40.6659C26.7432 40.6659 28.6553 39.7177 30.1466 37.6039Z" fill="white"/>
<path d="M27.4513 13.4474C27.4513 13.9297 27.0585 14.3639 26.5182 14.3639C26.0273 14.3639 25.5853 13.9297 25.5853 13.4474C25.5853 12.6274 25.929 11.9038 26.4692 11.3732C27.0093 10.8426 27.7459 10.505 28.5807 10.505C29.3664 10.505 30.1521 10.8426 30.6923 11.3732C31.2324 11.9038 31.5762 12.6274 31.5762 13.4474C31.5762 13.9297 31.1342 14.3639 30.5941 14.3639C30.103 14.3639 29.661 13.9297 29.661 13.4474C29.661 13.158 29.5137 12.8686 29.3173 12.6756C29.1209 12.4827 28.8753 12.338 28.5807 12.338C28.286 12.338 27.9914 12.4827 27.7951 12.6756C27.5986 12.8686 27.4513 13.158 27.4513 13.4474Z" fill="#26374A" stroke="#26374A" stroke-width="0.5"/>
<path d="M17.9151 13.4474C17.9151 13.9297 17.4732 14.3639 16.9821 14.3639C16.4419 14.3639 16 13.9297 16 13.4474C16 12.6274 16.3438 11.9038 16.8839 11.3732C17.424 10.8426 18.1606 10.505 18.9955 10.505C19.8302 10.505 20.5668 10.8426 21.1069 11.3732C21.6472 11.9038 21.9908 12.6274 21.9908 13.4474C21.9908 13.9297 21.5489 14.3639 21.0579 14.3639C20.5177 14.3639 20.0757 13.9297 20.0757 13.4474C20.0757 13.158 19.9775 12.8686 19.7811 12.6756C19.5848 12.4827 19.2901 12.338 18.9955 12.338C18.7009 12.338 18.4062 12.4827 18.2097 12.6756C18.0133 12.8686 17.9151 13.158 17.9151 13.4474Z" fill="#26374A" stroke="#26374A" stroke-width="0.5"/>
<path d="M23.656 26.3995L22.7302 28.0786C22.6407 28.2392 22.443 28.3059 22.2734 28.2324L21.4896 27.9003L21.9237 30.668C21.9469 30.8192 21.7648 30.9114 21.6542 30.8054L20.428 29.6183L20.2408 30.1657C20.1712 30.3673 19.9566 30.4837 19.7491 30.4323L18.525 30.1268L18.8747 31.8202C18.9147 32.0144 18.8111 32.21 18.6278 32.2856L18.3028 32.4168L20.6996 34.5285C20.8723 34.6818 20.9477 34.9149 20.8971 35.1395L20.7572 35.7689L22.6731 35.4716C22.8995 35.4422 23.1001 35.6211 23.0948 35.8468V38.4711H23.656H24.2275V35.8468C24.2233 35.6201 24.4238 35.4412 24.6492 35.4716L26.5527 35.7689L26.4128 35.1395C26.3644 34.9159 26.4417 34.6818 26.6144 34.5285L29.0092 32.4168L28.3694 32.1544L28.787 30.1247L27.1967 30.5225L26.886 29.6183L25.6599 30.8054C25.5503 30.9124 25.3672 30.8192 25.3903 30.668L25.8244 27.9003L25.0406 28.2324C24.8699 28.3048 24.6723 28.2392 24.5839 28.0786L23.656 26.3995Z" fill="#FA5466"/>
</svg>
