<svg width="160" height="160" viewBox="0 0 160 160" fill="none" xmlns="http://www.w3.org/2000/svg">
<path d="M80 0C64.1775 0 48.7103 4.69192 35.5544 13.4824C22.3985 22.2729 12.1447 34.7672 6.08967 49.3853C0.0346625 64.0034 -1.5496 80.0887 1.53721 95.6072C4.62403 111.126 12.2433 125.38 23.4315 136.569C34.6197 147.757 48.8743 155.376 64.3928 158.463C79.9113 161.55 95.9966 159.965 110.615 153.91C125.233 147.855 137.727 137.602 146.518 124.446C155.308 111.29 160 95.8225 160 80C159.94 58.8012 151.492 38.4879 136.502 23.4981C121.512 8.50822 101.199 0.0603098 80 0ZM80 140C68.1331 140 56.5328 136.481 46.6658 129.888C36.7989 123.295 29.1085 113.925 24.5673 102.961C20.026 91.9974 18.8378 79.9334 21.1529 68.2946C23.468 56.6557 29.1825 45.9647 37.5736 37.5736C45.9648 29.1824 56.6557 23.468 68.2946 21.1529C79.9335 18.8378 91.9975 20.026 102.961 24.5672C113.925 29.1085 123.295 36.7988 129.888 46.6658C136.481 56.5327 140 68.1331 140 80C140.033 87.8885 138.504 95.7055 135.5 103C132.496 110.294 128.078 116.922 122.5 122.5C116.922 128.078 110.294 132.496 103 135.5C95.7056 138.503 87.8886 140.033 80 140ZM120.667 55.3326C120.983 55.6336 121.235 55.9956 121.407 56.3968C121.579 56.7979 121.668 57.2298 121.668 57.6663C121.668 58.1027 121.579 58.5346 121.407 58.9358C121.235 59.3369 120.983 59.699 120.667 60L75.3326 113.333C74.7505 114.109 73.9957 114.739 73.1278 115.173C72.2599 115.607 71.3029 115.833 70.3326 115.833C69.3623 115.833 68.4052 115.607 67.5374 115.173C66.6695 114.739 65.9147 114.109 65.3326 113.333L39.3326 84.6674C39.0166 84.3664 38.765 84.0043 38.593 83.6032C38.4211 83.202 38.3325 82.7701 38.3325 82.3337C38.3325 81.8973 38.4211 81.4654 38.593 81.0642C38.765 80.663 39.0166 80.301 39.3326 80L46.6652 72C47.1455 71.4339 47.8108 71.0563 48.543 70.9341C49.2753 70.8119 50.0271 70.9531 50.6652 71.3326L67.9977 82.6651L108 48C108.736 47.3508 109.685 46.9925 110.666 46.9925C111.648 46.9925 112.596 47.3508 113.333 48L120.667 55.3326Z" fill="#278400"/>
</svg>
