<svg width="160" height="160" viewBox="0 0 160 160" fill="none" xmlns="http://www.w3.org/2000/svg">
<path d="M99.3326 37.3326L97.3326 50.6651C97.2367 51.4574 96.834 52.1805 96.2109 52.6793C95.5878 53.178 94.7941 53.4125 94 53.3326H77.3326C76.3655 53.2313 75.4762 52.7566 74.8538 52.0095C74.2314 51.2625 73.9251 50.302 74 49.3326L76 36C76.0959 35.2077 76.4986 34.4846 77.1217 33.9859C77.7448 33.4871 78.5385 33.2526 79.3326 33.3326H96C96.4997 33.3233 96.995 33.4263 97.4495 33.6341C97.904 33.8419 98.3061 34.1491 98.626 34.533C98.9458 34.917 99.1754 35.3679 99.2977 35.8524C99.42 36.337 99.4319 36.8428 99.3326 37.3326ZM160 80C160 95.8225 155.308 111.29 146.518 124.446C137.727 137.602 125.233 147.855 110.615 153.91C95.9966 159.965 79.9113 161.55 64.3928 158.463C48.8743 155.376 34.6197 147.757 23.4315 136.569C12.2433 125.38 4.62403 111.126 1.53721 95.6072C-1.5496 80.0887 0.0346625 64.0034 6.08967 49.3853C12.1447 34.7672 22.3985 22.2729 35.5544 13.4824C48.7103 4.69192 64.1775 0 80 0C101.199 0.0603098 121.512 8.50822 136.502 23.4981C151.492 38.4879 159.94 58.8012 160 80ZM140 80C140 68.1331 136.481 56.5327 129.888 46.6658C123.295 36.7988 113.925 29.1085 102.961 24.5672C91.9975 20.026 79.9335 18.8378 68.2946 21.1529C56.6557 23.468 45.9648 29.1824 37.5736 37.5736C29.1825 45.9647 23.468 56.6557 21.1529 68.2946C18.8378 79.9334 20.026 91.9974 24.5673 102.961C29.1085 113.925 36.7989 123.295 46.6658 129.888C56.5328 136.481 68.1331 140 80 140C87.8885 140.033 95.7055 138.503 103 135.5C110.294 132.496 116.922 128.078 122.5 122.5C128.078 116.922 132.496 110.294 135.5 103C138.504 95.7055 140.033 87.8885 140 80ZM86.6674 60H66C65.2648 60.1279 64.5738 60.4395 63.9912 60.9058C63.4086 61.3721 62.9533 61.9781 62.6674 62.6674L61.3349 69.3348C61.1646 69.7741 61.1025 70.2479 61.1538 70.7162C61.2051 71.1845 61.3683 71.6336 61.6296 72.0256C61.891 72.4175 62.2427 72.7409 62.6553 72.9684C63.0678 73.1959 63.5291 73.3208 64 73.3326H69.3326L57.3326 114C56.7726 115.463 56.5894 117.044 56.7999 118.596C57.0103 120.148 57.6076 121.623 58.5368 122.884C59.466 124.146 60.6974 125.153 62.1178 125.814C63.5381 126.475 65.1018 126.769 66.6652 126.667H90.6652C91.4004 126.539 92.0913 126.228 92.6739 125.762C93.2565 125.295 93.7119 124.689 93.9977 124L95.3303 117.333C95.4296 116.843 95.4177 116.337 95.2954 115.852C95.1731 115.368 94.9436 114.917 94.6237 114.533C94.3038 114.149 93.9017 113.842 93.4473 113.634C92.9927 113.426 92.4974 113.323 91.9977 113.333H83.3326L95.3326 72.6651C96.0296 71.2648 96.3402 69.7038 96.2322 68.1433C96.1242 66.5829 95.6016 65.0795 94.7184 63.7885C93.8351 62.4976 92.6233 61.4658 91.2079 60.7998C89.7926 60.1338 88.2252 59.8577 86.6674 60Z" fill="#269ABC"/>
</svg>
