<?xml version="1.0" standalone="no"?>
<!DOCTYPE svg PUBLIC "-//W3C//DTD SVG 20010904//EN"
 "http://www.w3.org/TR/2001/REC-SVG-20010904/DTD/svg10.dtd">
<svg version="1.0" xmlns="http://www.w3.org/2000/svg"
 width="96.000000pt" height="140.000000pt" viewBox="0 0 96.000000 140.000000"
 preserveAspectRatio="xMidYMid meet">

<g transform="translate(0.000000,140.000000) scale(0.100000,-0.100000)"
fill="#000000" stroke="none">
<path fill="#1D5B90" d="M371 1384 c-189 -40 -328 -183 -362 -369 -20 -107 9 -228 74 -312 17
-23 53 -70 79 -103 26 -34 52 -79 58 -100 17 -65 90 -77 120 -20 21 40 -19
130 -105 235 -76 92 -105 154 -105 227 0 107 67 226 153 272 l34 19 53 -30 53
-31 -82 -43 c-44 -24 -81 -46 -81 -49 0 -3 28 -21 63 -39 110 -60 109 -53 18
-102 -45 -24 -81 -46 -81 -49 0 -6 171 -98 185 -100 6 0 11 6 13 14 2 9 -19
26 -57 47 -34 17 -61 35 -61 39 0 5 34 27 75 49 41 23 75 43 75 46 0 2 -37 24
-81 48 l-81 45 48 27 c84 48 114 67 114 70 0 2 -27 18 -60 36 -33 17 -60 35
-60 40 0 12 87 22 150 16 174 -15 310 -158 310 -325 0 -73 -28 -133 -107 -232
-64 -80 -96 -136 -107 -186 -9 -38 24 -84 60 -84 27 0 64 32 64 55 0 26 24 65
99 160 103 130 135 234 112 360 -34 188 -174 329 -366 370 -85 18 -130 18
-214 -1z"/>
<path fill="#1D5B90" d="M246 329 c-31 -25 -34 -61 -6 -89 19 -19 33 -20 240 -20 207 0 221 1
240 20 28 28 25 64 -6 89 -25 20 -39 21 -234 21 -195 0 -209 -1 -234 -21z"/>
<path fill="#1D5B90" d="M330 110 c-11 -11 -20 -31 -20 -45 0 -14 9 -34 20 -45 18 -18 33 -20
150 -20 117 0 132 2 150 20 11 11 20 31 20 45 0 14 -9 34 -20 45 -18 18 -33
20 -150 20 -117 0 -132 -2 -150 -20z"/>
</g>
</svg>
