<svg width="18" height="18" viewBox="0 0 18 18" fill="none" xmlns="http://www.w3.org/2000/svg">
<path d="M6.70833 0V1.91667H1.91667V15.3333H15.3333V10.5417H17.25V16.2917C17.25 16.5458 17.149 16.7896 16.9693 16.9693C16.7896 17.149 16.5458 17.25 16.2917 17.25H0.958333C0.704167 17.25 0.460412 17.149 0.280689 16.9693C0.100967 16.7896 0 16.5458 0 16.2917V0.958333C0 0.704167 0.100967 0.460412 0.280689 0.280689C0.460412 0.100967 0.704167 0 0.958333 0H6.70833ZM14.0942 4.51087L8.625 9.98008L7.26992 8.625L12.7391 3.15579L9.58333 0H17.25V7.66667L14.0942 4.51087Z" fill="#2B4380"/>
</svg>
