<svg width="26" height="26" viewBox="0 0 26 26" fill="none" xmlns="http://www.w3.org/2000/svg">
<path d="M26 13C26 20.1813 20.1792 26 13 26C5.8208 26 0 20.1813 0 13C0 5.8229 5.8208 0 13 0C20.1792 0 26 5.8229 26 13ZM13 15.621C11.6683 15.621 10.5887 16.7005 10.5887 18.0323C10.5887 19.364 11.6683 20.4435 13 20.4435C14.3317 20.4435 15.4113 19.364 15.4113 18.0323C15.4113 16.7005 14.3317 15.621 13 15.621ZM10.7107 6.95364L11.0995 14.0827C11.1177 14.4163 11.3936 14.6774 11.7276 14.6774H14.2724C14.6064 14.6774 14.8823 14.4163 14.9005 14.0827L15.2893 6.95364C15.309 6.59331 15.0221 6.29032 14.6612 6.29032H11.3387C10.9779 6.29032 10.691 6.59331 10.7107 6.95364Z" fill="#D3080C"/>
</svg>
