<svg width="18" height="18" viewBox="0 0 18 18" fill="none" xmlns="http://www.w3.org/2000/svg">
<path d="M16.5 7.125H10.875V1.5C10.875 0.809766 10.3152 0.25 9.625 0.25H8.375C7.68477 0.25 7.125 0.809766 7.125 1.5V7.125H1.5C0.809766 7.125 0.25 7.68477 0.25 8.375V9.625C0.25 10.3152 0.809766 10.875 1.5 10.875H7.125V16.5C7.125 17.1902 7.68477 17.75 8.375 17.75H9.625C10.3152 17.75 10.875 17.1902 10.875 16.5V10.875H16.5C17.1902 10.875 17.75 10.3152 17.75 9.625V8.375C17.75 7.68477 17.1902 7.125 16.5 7.125Z" fill="white"/>
</svg>
