<svg width="26" height="26" viewBox="0 0 26 26" fill="none" xmlns="http://www.w3.org/2000/svg">
<path d="M25.5938 13C25.5938 19.9554 19.9554 25.5938 13 25.5938C6.04464 25.5938 0.40625 19.9554 0.40625 13C0.40625 6.04464 6.04464 0.40625 13 0.40625C19.9554 0.40625 25.5938 6.04464 25.5938 13ZM11.5433 19.6683L20.887 10.3245C21.2043 10.0073 21.2043 9.49279 20.887 9.17551L19.738 8.02648C19.4207 7.70915 18.9063 7.70915 18.5889 8.02648L10.9688 15.6466L7.41107 12.0889C7.09378 11.7717 6.57932 11.7717 6.26199 12.0889L5.11296 13.238C4.79568 13.5552 4.79568 14.0697 5.11296 14.387L10.3942 19.6682C10.7115 19.9856 11.226 19.9856 11.5433 19.6683Z" fill="#278400"/>
</svg>
