<svg width="26" height="24" viewBox="0 0 26 24" fill="none" xmlns="http://www.w3.org/2000/svg">
<path d="M25.7074 20.3061C26.5406 21.7503 25.4947 23.5555 23.8306 23.5555H2.16912C0.501822 23.5555 -0.539171 21.7475 0.292378 20.3061L11.1233 1.52709C11.9569 0.082241 14.0447 0.084859 14.8767 1.52709L25.7074 20.3061ZM13 16.4236C11.8533 16.4236 10.9236 17.3532 10.9236 18.5C10.9236 19.6467 11.8533 20.5764 13 20.5764C14.1468 20.5764 15.0764 19.6467 15.0764 18.5C15.0764 17.3532 14.1468 16.4236 13 16.4236ZM11.0287 8.96007L11.3635 15.099C11.3792 15.3862 11.6167 15.6111 11.9044 15.6111H14.0957C14.3833 15.6111 14.6209 15.3862 14.6365 15.099L14.9714 8.96007C14.9883 8.64978 14.7412 8.38888 14.4305 8.38888H11.5695C11.2587 8.38888 11.0117 8.64978 11.0287 8.96007Z" fill="#EE7100"/>
</svg>
